<svg xmlns="http://www.w3.org/2000/svg" xmlns:xlink="http://www.w3.org/1999/xlink" width="1500" zoomAndPan="magnify" viewBox="0 0 1125 1124.99995" height="1500" preserveAspectRatio="xMidYMid meet" version="1.0"><defs><g/><clipPath id="ae8349c34f"><path d="M 164.246094 32.078125 L 960.746094 32.078125 L 960.746094 828.578125 L 164.246094 828.578125 Z M 164.246094 32.078125 " clip-rule="nonzero"/></clipPath></defs><g fill="#004aad" fill-opacity="1"><g transform="translate(107.729727, 1052.04152)"><g><path d="M 113.203125 -4.0625 C 114.035156 -3.507812 114.207031 -2.675781 113.71875 -1.5625 C 113.238281 -0.445312 112.335938 0.679688 111.015625 1.828125 C 109.691406 2.972656 108.128906 3.960938 106.328125 4.796875 C 104.523438 5.628906 102.71875 6.007812 100.90625 5.9375 C 99.175781 5.863281 97.476562 5.34375 95.8125 4.375 C 94.144531 3.40625 92.664062 1.894531 91.375 -0.15625 C 90.09375 -2.207031 89.050781 -4.757812 88.25 -7.8125 C 87.457031 -10.863281 87.0625 -14.507812 87.0625 -18.75 L 87.0625 -117.46875 C 87.0625 -121.5 86.660156 -124.625 85.859375 -126.84375 C 85.066406 -129.0625 84.128906 -130.675781 83.046875 -131.6875 C 81.972656 -132.695312 80.863281 -133.285156 79.71875 -133.453125 C 78.570312 -133.628906 77.648438 -133.71875 76.953125 -133.71875 C 76.191406 -133.71875 75.222656 -133.613281 74.046875 -133.40625 C 72.867188 -133.195312 71.738281 -132.519531 70.65625 -131.375 C 69.582031 -130.226562 68.660156 -128.421875 67.890625 -125.953125 C 67.128906 -123.492188 66.75 -119.972656 66.75 -115.390625 L 66.75 -0.203125 C 66.957031 -0.203125 67.179688 -0.0820312 67.421875 0.15625 C 67.671875 0.394531 67.796875 0.617188 67.796875 0.828125 C 67.796875 1.390625 67.394531 1.960938 66.59375 2.546875 C 65.800781 3.140625 64.8125 3.695312 63.625 4.21875 C 62.445312 4.738281 61.109375 5.15625 59.609375 5.46875 C 58.117188 5.78125 56.71875 5.9375 55.40625 5.9375 C 54.019531 5.9375 52.785156 5.757812 51.703125 5.40625 C 50.628906 5.0625 50.09375 3.882812 50.09375 1.875 L 50.09375 -117.46875 C 50.09375 -121.5 49.726562 -124.625 49 -126.84375 C 48.269531 -129.0625 47.382812 -130.675781 46.34375 -131.6875 C 45.300781 -132.695312 44.207031 -133.285156 43.0625 -133.453125 C 41.914062 -133.628906 40.925781 -133.71875 40.09375 -133.71875 C 39.394531 -133.71875 38.472656 -133.628906 37.328125 -133.453125 C 36.179688 -133.285156 35.050781 -132.695312 33.9375 -131.6875 C 32.832031 -130.675781 31.878906 -129.0625 31.078125 -126.84375 C 30.285156 -124.625 29.890625 -121.5 29.890625 -117.46875 L 29.890625 -23.015625 C 29.890625 -13.578125 28.328125 -6.390625 25.203125 -1.453125 C 22.078125 3.472656 17.53125 5.9375 11.5625 5.9375 C 9.550781 5.9375 7.898438 5.585938 6.609375 4.890625 C 5.328125 4.203125 4.300781 3.335938 3.53125 2.296875 C 2.769531 1.253906 2.234375 0.144531 1.921875 -1.03125 C 1.609375 -2.21875 1.453125 -3.296875 1.453125 -4.265625 C 1.453125 -4.753906 1.609375 -5.066406 1.921875 -5.203125 C 2.234375 -5.347656 2.664062 -5.421875 3.21875 -5.421875 C 3.78125 -5.421875 4.40625 -5.4375 5.09375 -5.46875 C 5.789062 -5.5 6.523438 -5.65625 7.296875 -5.9375 C 7.984375 -6.21875 8.691406 -6.773438 9.421875 -7.609375 C 10.148438 -8.441406 10.789062 -9.65625 11.34375 -11.25 C 11.90625 -12.84375 12.359375 -14.851562 12.703125 -17.28125 C 13.046875 -19.71875 13.21875 -22.707031 13.21875 -26.25 L 13.21875 -115.390625 C 13.21875 -121.640625 14 -126.914062 15.5625 -131.21875 C 17.125 -135.519531 19.15625 -139.023438 21.65625 -141.734375 C 24.15625 -144.441406 26.984375 -146.382812 30.140625 -147.5625 C 33.304688 -148.75 36.484375 -149.34375 39.671875 -149.34375 C 40.578125 -149.34375 41.789062 -149.253906 43.3125 -149.078125 C 44.84375 -148.898438 46.53125 -148.5 48.375 -147.875 C 50.21875 -147.25 52.070312 -146.363281 53.9375 -145.21875 C 55.8125 -144.070312 57.582031 -142.53125 59.25 -140.59375 C 60.570312 -142.53125 62.03125 -144.070312 63.625 -145.21875 C 65.226562 -146.363281 66.8125 -147.25 68.375 -147.875 C 69.9375 -148.5 71.425781 -148.898438 72.84375 -149.078125 C 74.269531 -149.253906 75.503906 -149.34375 76.546875 -149.34375 C 79.878906 -149.34375 83.160156 -148.75 86.390625 -147.5625 C 89.617188 -146.382812 92.5 -144.441406 95.03125 -141.734375 C 97.5625 -139.023438 99.625 -135.519531 101.21875 -131.21875 C 102.820312 -126.914062 103.625 -121.640625 103.625 -115.390625 L 103.625 -20.515625 C 103.625 -18.296875 103.882812 -16.300781 104.40625 -14.53125 C 104.925781 -12.757812 105.617188 -11.195312 106.484375 -9.84375 C 107.347656 -8.488281 108.367188 -7.34375 109.546875 -6.40625 C 110.734375 -5.46875 111.953125 -4.6875 113.203125 -4.0625 Z M 113.203125 -4.0625 "/></g></g></g><g fill="#004aad" fill-opacity="1"><g transform="translate(224.560016, 1052.04152)"><g><path d="M 67.796875 -8.125 C 69.953125 -8.125 71.804688 -8.882812 73.359375 -10.40625 C 74.921875 -11.9375 76.273438 -13.847656 77.421875 -16.140625 C 78.566406 -18.429688 79.503906 -20.910156 80.234375 -23.578125 C 80.960938 -26.253906 81.570312 -28.773438 82.0625 -31.140625 C 82.550781 -33.359375 83.265625 -34.96875 84.203125 -35.96875 C 85.140625 -36.976562 86.160156 -37.484375 87.265625 -37.484375 C 88.097656 -37.484375 88.945312 -37.222656 89.8125 -36.703125 C 90.6875 -36.179688 91.488281 -35.503906 92.21875 -34.671875 C 92.945312 -33.835938 93.535156 -32.898438 93.984375 -31.859375 C 94.441406 -30.828125 94.671875 -29.789062 94.671875 -28.75 C 94.671875 -28.601562 94.671875 -28.425781 94.671875 -28.21875 C 94.671875 -28.007812 94.597656 -27.695312 94.453125 -27.28125 C 93.554688 -23.738281 92.328125 -20.023438 90.765625 -16.140625 C 89.203125 -12.253906 87.203125 -8.675781 84.765625 -5.40625 C 82.335938 -2.144531 79.40625 0.554688 75.96875 2.703125 C 72.53125 4.859375 68.519531 5.9375 63.9375 5.9375 C 60.1875 5.9375 56.921875 5.132812 54.140625 3.53125 C 51.367188 1.9375 49.1875 -0.175781 47.59375 -2.8125 C 45.4375 -0.382812 42.847656 1.675781 39.828125 3.375 C 36.804688 5.082031 33.285156 5.9375 29.265625 5.9375 C 25.097656 5.9375 21.429688 5.101562 18.265625 3.4375 C 15.109375 1.769531 12.453125 -0.5 10.296875 -3.375 C 8.148438 -6.257812 6.539062 -9.660156 5.46875 -13.578125 C 4.394531 -17.503906 3.859375 -21.726562 3.859375 -26.25 C 3.859375 -35.132812 5.28125 -43.113281 8.125 -50.1875 C 10.96875 -57.269531 14.75 -63.289062 19.46875 -68.25 C 24.195312 -73.21875 29.597656 -77.019531 35.671875 -79.65625 C 41.742188 -82.300781 48.039062 -83.625 54.5625 -83.625 C 57.476562 -83.625 59.835938 -82.820312 61.640625 -81.21875 C 63.453125 -79.625 64.359375 -77.441406 64.359375 -74.671875 C 64.359375 -72.867188 64.164062 -71.601562 63.78125 -70.875 C 63.40625 -70.144531 62.695312 -69.78125 61.65625 -69.78125 C 60.675781 -69.78125 59.664062 -69.847656 58.625 -69.984375 C 57.582031 -70.117188 56.507812 -70.1875 55.40625 -70.1875 C 51.375 -70.1875 47.273438 -69.300781 43.109375 -67.53125 C 38.941406 -65.757812 35.175781 -63.050781 31.8125 -59.40625 C 28.445312 -55.757812 25.6875 -51.140625 23.53125 -45.546875 C 21.382812 -39.960938 20.3125 -33.320312 20.3125 -25.625 C 20.3125 -20 21.382812 -15.675781 23.53125 -12.65625 C 25.6875 -9.632812 28.640625 -8.125 32.390625 -8.125 C 35.304688 -8.125 37.734375 -9.21875 39.671875 -11.40625 C 41.617188 -13.59375 43.179688 -16.175781 44.359375 -19.15625 L 44.359375 -52.078125 C 44.359375 -53.109375 44.304688 -53.972656 44.203125 -54.671875 C 44.097656 -55.367188 43.992188 -55.957031 43.890625 -56.4375 C 43.785156 -56.925781 43.695312 -57.359375 43.625 -57.734375 C 43.5625 -58.117188 43.53125 -58.488281 43.53125 -58.84375 C 43.53125 -59.945312 44.066406 -60.828125 45.140625 -61.484375 C 46.222656 -62.148438 47.523438 -62.484375 49.046875 -62.484375 C 52.585938 -62.484375 55.398438 -61.5625 57.484375 -59.71875 C 59.566406 -57.882812 60.609375 -55.679688 60.609375 -53.109375 L 60.609375 -17.90625 C 60.609375 -16.726562 60.742188 -15.566406 61.015625 -14.421875 C 61.296875 -13.273438 61.710938 -12.234375 62.265625 -11.296875 C 62.828125 -10.359375 63.578125 -9.59375 64.515625 -9 C 65.453125 -8.414062 66.546875 -8.125 67.796875 -8.125 Z M 67.796875 -8.125 "/></g></g></g><g fill="#004aad" fill-opacity="1"><g transform="translate(300.051993, 1052.04152)"><g><path d="M 53.9375 5.9375 C 51.445312 5.9375 48.898438 5.550781 46.296875 4.78125 C 43.691406 4.019531 41.328125 2.703125 39.203125 0.828125 C 37.085938 -1.046875 35.351562 -3.523438 34 -6.609375 C 32.644531 -9.703125 31.96875 -13.609375 31.96875 -18.328125 C 31.96875 -25.203125 32.882812 -32.472656 34.71875 -40.140625 C 36.5625 -47.816406 39.222656 -56.269531 42.703125 -65.5 L 24.0625 -65.5 C 23.988281 -63.414062 23.863281 -60.773438 23.6875 -57.578125 C 23.519531 -54.390625 23.226562 -50.988281 22.8125 -47.375 C 22.394531 -43.769531 21.851562 -40.128906 21.1875 -36.453125 C 20.53125 -32.773438 19.71875 -29.375 18.75 -26.25 C 18.050781 -24.019531 16.953125 -22.734375 15.453125 -22.390625 C 13.960938 -22.046875 12.488281 -22.304688 11.03125 -23.171875 C 9.582031 -24.035156 8.40625 -25.300781 7.5 -26.96875 C 6.59375 -28.632812 6.382812 -30.367188 6.875 -32.171875 C 7.425781 -34.328125 7.910156 -36.945312 8.328125 -40.03125 C 8.742188 -43.125 9.070312 -46.390625 9.3125 -49.828125 C 9.5625 -53.265625 9.753906 -56.703125 9.890625 -60.140625 C 10.035156 -63.578125 10.140625 -66.648438 10.203125 -69.359375 C 7.566406 -70.816406 5.378906 -72.671875 3.640625 -74.921875 C 1.910156 -77.179688 1.046875 -79.875 1.046875 -83 C 1.046875 -84.457031 1.335938 -85.789062 1.921875 -87 C 2.515625 -88.21875 3.296875 -89.257812 4.265625 -90.125 C 5.242188 -91 6.390625 -91.660156 7.703125 -92.109375 C 9.023438 -92.566406 10.378906 -92.796875 11.765625 -92.796875 C 13.015625 -92.796875 14.316406 -92.617188 15.671875 -92.265625 C 17.023438 -91.921875 18.304688 -91.296875 19.515625 -90.390625 C 20.734375 -89.492188 21.828125 -88.316406 22.796875 -86.859375 C 23.773438 -85.398438 24.578125 -83.59375 25.203125 -81.4375 C 26.941406 -81.226562 28.414062 -81.070312 29.625 -80.96875 C 30.84375 -80.863281 31.867188 -80.773438 32.703125 -80.703125 C 33.535156 -80.640625 34.226562 -80.609375 34.78125 -80.609375 C 35.332031 -80.609375 35.890625 -80.609375 36.453125 -80.609375 L 47.59375 -80.609375 C 48.21875 -80.609375 49.132812 -80.222656 50.34375 -79.453125 C 51.5625 -78.691406 52.757812 -77.703125 53.9375 -76.484375 C 55.125 -75.273438 56.113281 -73.972656 56.90625 -72.578125 C 57.707031 -71.191406 58.003906 -69.875 57.796875 -68.625 C 57.796875 -68.207031 57.550781 -67.203125 57.0625 -65.609375 C 56.582031 -64.015625 55.992188 -62 55.296875 -59.5625 C 54.597656 -57.132812 53.832031 -54.34375 53 -51.1875 C 52.175781 -48.03125 51.414062 -44.710938 50.71875 -41.234375 C 50.019531 -37.765625 49.425781 -34.171875 48.9375 -30.453125 C 48.457031 -26.742188 48.21875 -23.117188 48.21875 -19.578125 C 48.21875 -18.117188 48.390625 -16.691406 48.734375 -15.296875 C 49.085938 -13.910156 49.609375 -12.679688 50.296875 -11.609375 C 50.992188 -10.535156 51.878906 -9.6875 52.953125 -9.0625 C 54.023438 -8.4375 55.289062 -8.125 56.75 -8.125 C 59.1875 -8.125 61.269531 -8.882812 63 -10.40625 C 64.738281 -11.9375 66.195312 -13.847656 67.375 -16.140625 C 68.5625 -18.429688 69.519531 -20.910156 70.25 -23.578125 C 70.976562 -26.253906 71.582031 -28.773438 72.0625 -31.140625 C 72.476562 -33.359375 73.171875 -34.96875 74.140625 -35.96875 C 75.117188 -36.976562 76.128906 -37.484375 77.171875 -37.484375 C 78.003906 -37.484375 78.867188 -37.222656 79.765625 -36.703125 C 80.671875 -36.179688 81.488281 -35.503906 82.21875 -34.671875 C 82.945312 -33.835938 83.535156 -32.898438 83.984375 -31.859375 C 84.441406 -30.828125 84.671875 -29.789062 84.671875 -28.75 C 84.671875 -28.394531 84.632812 -28.113281 84.5625 -27.90625 C 84.488281 -27.695312 84.453125 -27.488281 84.453125 -27.28125 C 83.484375 -23.738281 82.21875 -20.023438 80.65625 -16.140625 C 79.09375 -12.253906 77.097656 -8.675781 74.671875 -5.40625 C 72.242188 -2.144531 69.328125 0.554688 65.921875 2.703125 C 62.515625 4.859375 58.519531 5.9375 53.9375 5.9375 Z M 53.9375 5.9375 "/></g></g></g><g fill="#004aad" fill-opacity="1"><g transform="translate(365.547794, 1052.04152)"><g><path d="M 41.546875 5.9375 C 36.828125 5.9375 32.242188 5.066406 27.796875 3.328125 C 23.359375 1.597656 19.421875 -0.96875 15.984375 -4.375 C 12.546875 -7.78125 9.800781 -11.976562 7.75 -16.96875 C 5.707031 -21.96875 4.6875 -27.765625 4.6875 -34.359375 C 4.6875 -40.472656 5.550781 -46.476562 7.28125 -52.375 C 9.019531 -58.28125 11.414062 -63.539062 14.46875 -68.15625 C 17.53125 -72.769531 21.195312 -76.5 25.46875 -79.34375 C 29.738281 -82.195312 34.40625 -83.625 39.46875 -83.625 C 43.144531 -83.625 46.269531 -82.875 48.84375 -81.375 C 51.414062 -79.882812 53.5 -78.082031 55.09375 -75.96875 C 56.6875 -73.851562 57.847656 -71.578125 58.578125 -69.140625 C 59.304688 -66.710938 59.671875 -64.5625 59.671875 -62.6875 C 59.671875 -61.300781 59.304688 -60.050781 58.578125 -58.9375 C 57.847656 -57.832031 56.960938 -56.894531 55.921875 -56.125 C 54.878906 -55.363281 53.734375 -54.789062 52.484375 -54.40625 C 51.234375 -54.03125 50.125 -53.875 49.15625 -53.9375 C 48.1875 -54.007812 47.40625 -54.359375 46.8125 -54.984375 C 46.21875 -55.609375 46.023438 -56.546875 46.234375 -57.796875 C 45.960938 -58.703125 45.703125 -59.8125 45.453125 -61.125 C 45.210938 -62.445312 44.796875 -63.710938 44.203125 -64.921875 C 43.617188 -66.140625 42.804688 -67.179688 41.765625 -68.046875 C 40.722656 -68.921875 39.296875 -69.359375 37.484375 -69.359375 C 35.546875 -69.359375 33.65625 -68.4375 31.8125 -66.59375 C 29.976562 -64.757812 28.347656 -62.242188 26.921875 -59.046875 C 25.492188 -55.847656 24.347656 -52.128906 23.484375 -47.890625 C 22.617188 -43.660156 22.1875 -39.148438 22.1875 -34.359375 C 22.1875 -30.128906 22.722656 -26.378906 23.796875 -23.109375 C 24.867188 -19.847656 26.378906 -17.109375 28.328125 -14.890625 C 30.273438 -12.671875 32.582031 -10.988281 35.25 -9.84375 C 37.925781 -8.695312 40.828125 -8.125 43.953125 -8.125 C 48.117188 -8.125 51.742188 -8.90625 54.828125 -10.46875 C 57.921875 -12.03125 60.539062 -14.09375 62.6875 -16.65625 C 64.84375 -19.226562 66.578125 -22.109375 67.890625 -25.296875 C 69.210938 -28.492188 70.1875 -31.722656 70.8125 -34.984375 C 71.300781 -37.347656 72.289062 -38.925781 73.78125 -39.71875 C 75.269531 -40.519531 76.796875 -40.710938 78.359375 -40.296875 C 79.921875 -39.878906 81.273438 -38.992188 82.421875 -37.640625 C 83.566406 -36.285156 84.035156 -34.671875 83.828125 -32.796875 C 83.554688 -30.648438 83.054688 -28.1875 82.328125 -25.40625 C 81.597656 -22.632812 80.535156 -19.820312 79.140625 -16.96875 C 77.753906 -14.125 76.003906 -11.332031 73.890625 -8.59375 C 71.773438 -5.851562 69.1875 -3.40625 66.125 -1.25 C 63.070312 0.90625 59.515625 2.640625 55.453125 3.953125 C 51.390625 5.273438 46.753906 5.9375 41.546875 5.9375 Z M 41.546875 5.9375 "/></g></g></g><g fill="#004aad" fill-opacity="1"><g transform="translate(428.8569, 1052.04152)"><g><path d="M 56.546875 -62.0625 C 56.546875 -58.101562 55.867188 -54.039062 54.515625 -49.875 C 53.160156 -45.71875 51.144531 -41.78125 48.46875 -38.0625 C 45.800781 -34.34375 42.503906 -31.007812 38.578125 -28.0625 C 34.660156 -25.113281 30.132812 -22.875 25 -21.34375 C 25.6875 -19.539062 26.601562 -17.820312 27.75 -16.1875 C 28.894531 -14.5625 30.265625 -13.15625 31.859375 -11.96875 C 33.460938 -10.789062 35.320312 -9.851562 37.4375 -9.15625 C 39.550781 -8.46875 42 -8.125 44.78125 -8.125 C 48.945312 -8.125 52.519531 -8.90625 55.5 -10.46875 C 58.488281 -12.03125 61.003906 -14.09375 63.046875 -16.65625 C 65.097656 -19.226562 66.75 -22.109375 68 -25.296875 C 69.25 -28.492188 70.1875 -31.722656 70.8125 -34.984375 C 71.300781 -37.347656 72.289062 -38.925781 73.78125 -39.71875 C 75.269531 -40.519531 76.796875 -40.710938 78.359375 -40.296875 C 79.921875 -39.878906 81.273438 -38.992188 82.421875 -37.640625 C 83.566406 -36.285156 84.035156 -34.671875 83.828125 -32.796875 C 83.554688 -30.648438 83.085938 -28.1875 82.421875 -25.40625 C 81.765625 -22.632812 80.773438 -19.820312 79.453125 -16.96875 C 78.140625 -14.125 76.457031 -11.332031 74.40625 -8.59375 C 72.363281 -5.851562 69.847656 -3.40625 66.859375 -1.25 C 63.867188 0.90625 60.359375 2.640625 56.328125 3.953125 C 52.304688 5.273438 47.691406 5.9375 42.484375 5.9375 C 37.628906 5.9375 32.925781 4.976562 28.375 3.0625 C 23.832031 1.15625 19.804688 -1.582031 16.296875 -5.15625 C 12.785156 -8.726562 9.972656 -13.132812 7.859375 -18.375 C 5.742188 -23.625 4.6875 -29.578125 4.6875 -36.234375 C 4.6875 -42.972656 5.625 -49.238281 7.5 -55.03125 C 9.375 -60.832031 11.835938 -65.847656 14.890625 -70.078125 C 17.941406 -74.316406 21.410156 -77.632812 25.296875 -80.03125 C 29.191406 -82.425781 33.1875 -83.625 37.28125 -83.625 C 40.269531 -83.625 42.960938 -83.101562 45.359375 -82.0625 C 47.753906 -81.019531 49.78125 -79.539062 51.4375 -77.625 C 53.101562 -75.71875 54.367188 -73.445312 55.234375 -70.8125 C 56.109375 -68.175781 56.546875 -65.257812 56.546875 -62.0625 Z M 22.1875 -36.859375 C 22.1875 -36.234375 22.21875 -35.609375 22.28125 -34.984375 C 22.351562 -34.359375 22.390625 -33.703125 22.390625 -33.015625 C 25.023438 -34.265625 27.414062 -35.859375 29.5625 -37.796875 C 31.71875 -39.742188 33.5625 -41.96875 35.09375 -44.46875 C 36.625 -46.96875 37.804688 -49.691406 38.640625 -52.640625 C 39.472656 -55.585938 39.890625 -58.660156 39.890625 -61.859375 C 39.890625 -64.222656 39.488281 -66.0625 38.6875 -67.375 C 37.882812 -68.695312 36.789062 -69.359375 35.40625 -69.359375 C 33.664062 -69.359375 32.117188 -68.765625 30.765625 -67.578125 C 29.421875 -66.398438 28.242188 -64.859375 27.234375 -62.953125 C 26.222656 -61.046875 25.390625 -58.894531 24.734375 -56.5 C 24.078125 -54.101562 23.539062 -51.6875 23.125 -49.25 C 22.707031 -46.820312 22.425781 -44.515625 22.28125 -42.328125 C 22.144531 -40.140625 22.113281 -38.316406 22.1875 -36.859375 Z M 22.1875 -36.859375 "/></g></g></g><g fill="#004aad" fill-opacity="1"><g transform="translate(492.166005, 1052.04152)"><g><path d="M 23.640625 -63.109375 C 24.398438 -64.566406 25.144531 -66.523438 25.875 -68.984375 C 26.601562 -71.453125 27.296875 -74.175781 27.953125 -77.15625 C 28.617188 -80.144531 29.226562 -83.269531 29.78125 -86.53125 C 30.34375 -89.800781 30.832031 -93 31.25 -96.125 C 31.664062 -99.25 31.992188 -102.179688 32.234375 -104.921875 C 32.472656 -107.660156 32.59375 -110.003906 32.59375 -111.953125 C 32.59375 -119.035156 32.070312 -124.222656 31.03125 -127.515625 C 29.988281 -130.816406 28.601562 -132.46875 26.875 -132.46875 C 26.3125 -132.46875 25.820312 -132.1875 25.40625 -131.625 C 24.988281 -131.070312 24.640625 -130.363281 24.359375 -129.5 C 24.085938 -128.632812 23.898438 -127.695312 23.796875 -126.6875 C 23.691406 -125.675781 23.640625 -124.753906 23.640625 -123.921875 Z M 53.9375 -30.9375 C 54.351562 -33.007812 54.992188 -34.515625 55.859375 -35.453125 C 56.734375 -36.390625 57.671875 -36.910156 58.671875 -37.015625 C 59.679688 -37.117188 60.707031 -36.875 61.75 -36.28125 C 62.789062 -35.695312 63.691406 -34.914062 64.453125 -33.9375 C 65.222656 -32.96875 65.796875 -31.875 66.171875 -30.65625 C 66.554688 -29.445312 66.613281 -28.253906 66.34375 -27.078125 C 65.363281 -24.234375 63.972656 -20.898438 62.171875 -17.078125 C 60.367188 -13.253906 58.078125 -9.640625 55.296875 -6.234375 C 52.523438 -2.835938 49.265625 0.0351562 45.515625 2.390625 C 41.765625 4.753906 37.457031 5.9375 32.59375 5.9375 C 28.5 5.9375 24.890625 5.257812 21.765625 3.90625 C 18.640625 2.550781 16.015625 0.644531 13.890625 -1.8125 C 11.773438 -4.28125 10.179688 -7.234375 9.109375 -10.671875 C 8.035156 -14.109375 7.5 -17.945312 7.5 -22.1875 L 7.5 -119.234375 C 7.5 -123.191406 8 -126.851562 9 -130.21875 C 10.007812 -133.59375 11.398438 -136.476562 13.171875 -138.875 C 14.941406 -141.269531 17.003906 -143.144531 19.359375 -144.5 C 21.722656 -145.851562 24.226562 -146.53125 26.875 -146.53125 C 30 -146.53125 32.632812 -145.957031 34.78125 -144.8125 C 36.9375 -143.664062 38.707031 -142.15625 40.09375 -140.28125 C 41.476562 -138.40625 42.570312 -136.25 43.375 -133.8125 C 44.175781 -131.382812 44.75 -128.90625 45.09375 -126.375 C 45.4375 -123.84375 45.644531 -121.34375 45.71875 -118.875 C 45.789062 -116.414062 45.828125 -114.175781 45.828125 -112.15625 C 45.828125 -106.945312 45.335938 -101.476562 44.359375 -95.75 C 43.390625 -90.03125 42.15625 -84.390625 40.65625 -78.828125 C 39.164062 -73.273438 37.535156 -67.945312 35.765625 -62.84375 C 33.992188 -57.738281 32.289062 -53.207031 30.65625 -49.25 C 29.03125 -45.300781 27.578125 -42.078125 26.296875 -39.578125 C 25.015625 -37.078125 24.128906 -35.617188 23.640625 -35.203125 L 23.640625 -22.8125 C 23.640625 -18.5 24.539062 -14.972656 26.34375 -12.234375 C 28.15625 -9.492188 31.035156 -8.125 34.984375 -8.125 C 37.421875 -8.125 39.695312 -8.867188 41.8125 -10.359375 C 43.925781 -11.847656 45.800781 -13.722656 47.4375 -15.984375 C 49.070312 -18.242188 50.441406 -20.707031 51.546875 -23.375 C 52.660156 -26.050781 53.457031 -28.570312 53.9375 -30.9375 Z M 53.9375 -30.9375 "/></g></g></g><g fill="#004aad" fill-opacity="1"><g transform="translate(539.127233, 1052.04152)"><g><path d="M 67.796875 -8.125 C 69.953125 -8.125 71.804688 -8.882812 73.359375 -10.40625 C 74.921875 -11.9375 76.273438 -13.847656 77.421875 -16.140625 C 78.566406 -18.429688 79.503906 -20.910156 80.234375 -23.578125 C 80.960938 -26.253906 81.570312 -28.773438 82.0625 -31.140625 C 82.550781 -33.359375 83.265625 -34.96875 84.203125 -35.96875 C 85.140625 -36.976562 86.160156 -37.484375 87.265625 -37.484375 C 88.097656 -37.484375 88.945312 -37.222656 89.8125 -36.703125 C 90.6875 -36.179688 91.488281 -35.503906 92.21875 -34.671875 C 92.945312 -33.835938 93.535156 -32.898438 93.984375 -31.859375 C 94.441406 -30.828125 94.671875 -29.789062 94.671875 -28.75 C 94.671875 -28.601562 94.671875 -28.425781 94.671875 -28.21875 C 94.671875 -28.007812 94.597656 -27.695312 94.453125 -27.28125 C 93.554688 -23.738281 92.328125 -20.023438 90.765625 -16.140625 C 89.203125 -12.253906 87.203125 -8.675781 84.765625 -5.40625 C 82.335938 -2.144531 79.40625 0.554688 75.96875 2.703125 C 72.53125 4.859375 68.519531 5.9375 63.9375 5.9375 C 60.1875 5.9375 56.921875 5.132812 54.140625 3.53125 C 51.367188 1.9375 49.1875 -0.175781 47.59375 -2.8125 C 45.4375 -0.382812 42.847656 1.675781 39.828125 3.375 C 36.804688 5.082031 33.285156 5.9375 29.265625 5.9375 C 25.097656 5.9375 21.429688 5.101562 18.265625 3.4375 C 15.109375 1.769531 12.453125 -0.5 10.296875 -3.375 C 8.148438 -6.257812 6.539062 -9.660156 5.46875 -13.578125 C 4.394531 -17.503906 3.859375 -21.726562 3.859375 -26.25 C 3.859375 -35.132812 5.28125 -43.113281 8.125 -50.1875 C 10.96875 -57.269531 14.75 -63.289062 19.46875 -68.25 C 24.195312 -73.21875 29.597656 -77.019531 35.671875 -79.65625 C 41.742188 -82.300781 48.039062 -83.625 54.5625 -83.625 C 57.476562 -83.625 59.835938 -82.820312 61.640625 -81.21875 C 63.453125 -79.625 64.359375 -77.441406 64.359375 -74.671875 C 64.359375 -72.867188 64.164062 -71.601562 63.78125 -70.875 C 63.40625 -70.144531 62.695312 -69.78125 61.65625 -69.78125 C 60.675781 -69.78125 59.664062 -69.847656 58.625 -69.984375 C 57.582031 -70.117188 56.507812 -70.1875 55.40625 -70.1875 C 51.375 -70.1875 47.273438 -69.300781 43.109375 -67.53125 C 38.941406 -65.757812 35.175781 -63.050781 31.8125 -59.40625 C 28.445312 -55.757812 25.6875 -51.140625 23.53125 -45.546875 C 21.382812 -39.960938 20.3125 -33.320312 20.3125 -25.625 C 20.3125 -20 21.382812 -15.675781 23.53125 -12.65625 C 25.6875 -9.632812 28.640625 -8.125 32.390625 -8.125 C 35.304688 -8.125 37.734375 -9.21875 39.671875 -11.40625 C 41.617188 -13.59375 43.179688 -16.175781 44.359375 -19.15625 L 44.359375 -52.078125 C 44.359375 -53.109375 44.304688 -53.972656 44.203125 -54.671875 C 44.097656 -55.367188 43.992188 -55.957031 43.890625 -56.4375 C 43.785156 -56.925781 43.695312 -57.359375 43.625 -57.734375 C 43.5625 -58.117188 43.53125 -58.488281 43.53125 -58.84375 C 43.53125 -59.945312 44.066406 -60.828125 45.140625 -61.484375 C 46.222656 -62.148438 47.523438 -62.484375 49.046875 -62.484375 C 52.585938 -62.484375 55.398438 -61.5625 57.484375 -59.71875 C 59.566406 -57.882812 60.609375 -55.679688 60.609375 -53.109375 L 60.609375 -17.90625 C 60.609375 -16.726562 60.742188 -15.566406 61.015625 -14.421875 C 61.296875 -13.273438 61.710938 -12.234375 62.265625 -11.296875 C 62.828125 -10.359375 63.578125 -9.59375 64.515625 -9 C 65.453125 -8.414062 66.546875 -8.125 67.796875 -8.125 Z M 67.796875 -8.125 "/></g></g></g><g fill="#004aad" fill-opacity="1"><g transform="translate(614.61921, 1052.04152)"><g/></g></g><g fill="#004aad" fill-opacity="1"><g transform="translate(661.580437, 1052.04152)"><g><path d="M 43.109375 7.703125 C 38.597656 7.703125 34.847656 7.195312 31.859375 6.1875 C 28.878906 5.1875 26.519531 4.0625 24.78125 2.8125 C 23.050781 1.5625 21.835938 0.363281 21.140625 -0.78125 C 20.441406 -1.925781 20.09375 -2.671875 20.09375 -3.015625 C 20.09375 -4.265625 20.367188 -5.601562 20.921875 -7.03125 C 21.484375 -8.457031 22.179688 -9.773438 23.015625 -10.984375 C 23.847656 -12.203125 24.75 -13.226562 25.71875 -14.0625 C 26.695312 -14.894531 27.566406 -15.3125 28.328125 -15.3125 C 29.296875 -15.3125 30.09375 -14.6875 30.71875 -13.4375 C 30.863281 -13.289062 31.210938 -12.941406 31.765625 -12.390625 C 32.316406 -11.835938 33.09375 -11.265625 34.09375 -10.671875 C 35.101562 -10.085938 36.351562 -9.550781 37.84375 -9.0625 C 39.34375 -8.570312 41.097656 -8.328125 43.109375 -8.328125 C 47.484375 -8.328125 51.054688 -9.660156 53.828125 -12.328125 C 56.609375 -15.003906 58 -18.632812 58 -23.21875 C 58 -26.414062 57.253906 -29.265625 55.765625 -31.765625 C 54.273438 -34.265625 52.3125 -36.585938 49.875 -38.734375 C 47.445312 -40.890625 44.671875 -42.988281 41.546875 -45.03125 C 38.421875 -47.082031 35.226562 -49.21875 31.96875 -51.4375 C 28.707031 -53.664062 25.515625 -56.0625 22.390625 -58.625 C 19.265625 -61.195312 16.488281 -64.148438 14.0625 -67.484375 C 11.632812 -70.816406 9.671875 -74.582031 8.171875 -78.78125 C 6.679688 -82.976562 5.9375 -87.785156 5.9375 -93.203125 C 5.9375 -97.859375 6.734375 -102.546875 8.328125 -107.265625 C 9.921875 -111.984375 12.125 -116.476562 14.9375 -120.75 C 17.75 -125.019531 21.066406 -129.007812 24.890625 -132.71875 C 28.710938 -136.4375 32.84375 -139.664062 37.28125 -142.40625 C 41.726562 -145.15625 46.363281 -147.3125 51.1875 -148.875 C 56.007812 -150.4375 60.851562 -151.21875 65.71875 -151.21875 C 69.882812 -151.21875 73.628906 -150.554688 76.953125 -149.234375 C 80.285156 -147.910156 83.097656 -146.050781 85.390625 -143.65625 C 87.679688 -141.257812 89.453125 -138.378906 90.703125 -135.015625 C 91.953125 -131.648438 92.578125 -127.882812 92.578125 -123.71875 C 92.578125 -119.757812 91.882812 -115.867188 90.5 -112.046875 C 89.113281 -108.234375 87.273438 -104.625 84.984375 -101.21875 C 82.691406 -97.820312 80.101562 -94.679688 77.21875 -91.796875 C 74.34375 -88.921875 71.394531 -86.421875 68.375 -84.296875 C 65.351562 -82.179688 62.414062 -80.53125 59.5625 -79.34375 C 56.71875 -78.164062 54.222656 -77.578125 52.078125 -77.578125 C 50.203125 -77.578125 48.515625 -78.007812 47.015625 -78.875 C 45.523438 -79.75 44.273438 -80.828125 43.265625 -82.109375 C 42.265625 -83.398438 41.484375 -84.753906 40.921875 -86.171875 C 40.367188 -87.597656 40.09375 -88.867188 40.09375 -89.984375 C 40.09375 -90.878906 40.210938 -91.46875 40.453125 -91.75 C 40.703125 -92.03125 41.050781 -92.148438 41.5 -92.109375 C 41.945312 -92.078125 42.519531 -91.972656 43.21875 -91.796875 C 43.914062 -91.628906 44.710938 -91.546875 45.609375 -91.546875 C 48.523438 -91.546875 51.753906 -92.550781 55.296875 -94.5625 C 58.835938 -96.570312 62.171875 -99.140625 65.296875 -102.265625 C 68.421875 -105.390625 71.039062 -108.828125 73.15625 -112.578125 C 75.269531 -116.328125 76.328125 -119.972656 76.328125 -123.515625 C 76.328125 -127.117188 75.441406 -129.960938 73.671875 -132.046875 C 71.910156 -134.128906 68.910156 -135.171875 64.671875 -135.171875 C 62.035156 -135.171875 59.171875 -134.664062 56.078125 -133.65625 C 52.992188 -132.65625 49.890625 -131.25 46.765625 -129.4375 C 43.640625 -127.632812 40.617188 -125.445312 37.703125 -122.875 C 34.785156 -120.3125 32.210938 -117.484375 29.984375 -114.390625 C 27.765625 -111.304688 25.976562 -107.972656 24.625 -104.390625 C 23.269531 -100.816406 22.59375 -97.085938 22.59375 -93.203125 C 22.59375 -89.109375 23.335938 -85.445312 24.828125 -82.21875 C 26.328125 -78.988281 28.304688 -76.054688 30.765625 -73.421875 C 33.234375 -70.785156 36.03125 -68.351562 39.15625 -66.125 C 42.28125 -63.90625 45.472656 -61.703125 48.734375 -59.515625 C 51.992188 -57.328125 55.1875 -55.070312 58.3125 -52.75 C 61.4375 -50.425781 64.234375 -47.859375 66.703125 -45.046875 C 69.171875 -42.234375 71.148438 -39.109375 72.640625 -35.671875 C 74.128906 -32.234375 74.875 -28.289062 74.875 -23.84375 C 74.875 -19.539062 74.054688 -15.460938 72.421875 -11.609375 C 70.796875 -7.753906 68.554688 -4.40625 65.703125 -1.5625 C 62.859375 1.28125 59.492188 3.535156 55.609375 5.203125 C 51.722656 6.867188 47.554688 7.703125 43.109375 7.703125 Z M 43.109375 7.703125 "/></g></g></g><g fill="#004aad" fill-opacity="1"><g transform="translate(749.87998, 1052.04152)"><g><path d="M 67.796875 -8.125 C 69.953125 -8.125 71.804688 -8.882812 73.359375 -10.40625 C 74.921875 -11.9375 76.273438 -13.847656 77.421875 -16.140625 C 78.566406 -18.429688 79.503906 -20.910156 80.234375 -23.578125 C 80.960938 -26.253906 81.570312 -28.773438 82.0625 -31.140625 C 82.550781 -33.359375 83.265625 -34.96875 84.203125 -35.96875 C 85.140625 -36.976562 86.160156 -37.484375 87.265625 -37.484375 C 88.097656 -37.484375 88.945312 -37.222656 89.8125 -36.703125 C 90.6875 -36.179688 91.488281 -35.503906 92.21875 -34.671875 C 92.945312 -33.835938 93.535156 -32.898438 93.984375 -31.859375 C 94.441406 -30.828125 94.671875 -29.789062 94.671875 -28.75 C 94.671875 -28.601562 94.671875 -28.425781 94.671875 -28.21875 C 94.671875 -28.007812 94.597656 -27.695312 94.453125 -27.28125 C 93.554688 -23.738281 92.328125 -20.023438 90.765625 -16.140625 C 89.203125 -12.253906 87.203125 -8.675781 84.765625 -5.40625 C 82.335938 -2.144531 79.40625 0.554688 75.96875 2.703125 C 72.53125 4.859375 68.519531 5.9375 63.9375 5.9375 C 60.1875 5.9375 56.921875 5.132812 54.140625 3.53125 C 51.367188 1.9375 49.1875 -0.175781 47.59375 -2.8125 C 45.4375 -0.382812 42.847656 1.675781 39.828125 3.375 C 36.804688 5.082031 33.285156 5.9375 29.265625 5.9375 C 25.097656 5.9375 21.429688 5.101562 18.265625 3.4375 C 15.109375 1.769531 12.453125 -0.5 10.296875 -3.375 C 8.148438 -6.257812 6.539062 -9.660156 5.46875 -13.578125 C 4.394531 -17.503906 3.859375 -21.726562 3.859375 -26.25 C 3.859375 -35.132812 5.28125 -43.113281 8.125 -50.1875 C 10.96875 -57.269531 14.75 -63.289062 19.46875 -68.25 C 24.195312 -73.21875 29.597656 -77.019531 35.671875 -79.65625 C 41.742188 -82.300781 48.039062 -83.625 54.5625 -83.625 C 57.476562 -83.625 59.835938 -82.820312 61.640625 -81.21875 C 63.453125 -79.625 64.359375 -77.441406 64.359375 -74.671875 C 64.359375 -72.867188 64.164062 -71.601562 63.78125 -70.875 C 63.40625 -70.144531 62.695312 -69.78125 61.65625 -69.78125 C 60.675781 -69.78125 59.664062 -69.847656 58.625 -69.984375 C 57.582031 -70.117188 56.507812 -70.1875 55.40625 -70.1875 C 51.375 -70.1875 47.273438 -69.300781 43.109375 -67.53125 C 38.941406 -65.757812 35.175781 -63.050781 31.8125 -59.40625 C 28.445312 -55.757812 25.6875 -51.140625 23.53125 -45.546875 C 21.382812 -39.960938 20.3125 -33.320312 20.3125 -25.625 C 20.3125 -20 21.382812 -15.675781 23.53125 -12.65625 C 25.6875 -9.632812 28.640625 -8.125 32.390625 -8.125 C 35.304688 -8.125 37.734375 -9.21875 39.671875 -11.40625 C 41.617188 -13.59375 43.179688 -16.175781 44.359375 -19.15625 L 44.359375 -52.078125 C 44.359375 -53.109375 44.304688 -53.972656 44.203125 -54.671875 C 44.097656 -55.367188 43.992188 -55.957031 43.890625 -56.4375 C 43.785156 -56.925781 43.695312 -57.359375 43.625 -57.734375 C 43.5625 -58.117188 43.53125 -58.488281 43.53125 -58.84375 C 43.53125 -59.945312 44.066406 -60.828125 45.140625 -61.484375 C 46.222656 -62.148438 47.523438 -62.484375 49.046875 -62.484375 C 52.585938 -62.484375 55.398438 -61.5625 57.484375 -59.71875 C 59.566406 -57.882812 60.609375 -55.679688 60.609375 -53.109375 L 60.609375 -17.90625 C 60.609375 -16.726562 60.742188 -15.566406 61.015625 -14.421875 C 61.296875 -13.273438 61.710938 -12.234375 62.265625 -11.296875 C 62.828125 -10.359375 63.578125 -9.59375 64.515625 -9 C 65.453125 -8.414062 66.546875 -8.125 67.796875 -8.125 Z M 67.796875 -8.125 "/></g></g></g><g fill="#004aad" fill-opacity="1"><g transform="translate(825.371957, 1052.04152)"><g><path d="M 7.5 -71.03125 C 7.5 -73.039062 7.34375 -74.492188 7.03125 -75.390625 C 6.71875 -76.296875 6.5625 -77.128906 6.5625 -77.890625 C 6.5625 -78.929688 7.113281 -79.78125 8.21875 -80.4375 C 9.332031 -81.101562 10.65625 -81.4375 12.1875 -81.4375 C 15.726562 -81.4375 18.519531 -80.515625 20.5625 -78.671875 C 22.613281 -76.835938 23.640625 -74.632812 23.640625 -72.0625 L 23.640625 -62.484375 C 25.097656 -65.472656 26.675781 -68.25 28.375 -70.8125 C 30.082031 -73.382812 31.921875 -75.625 33.890625 -77.53125 C 35.867188 -79.4375 37.988281 -80.925781 40.25 -82 C 42.507812 -83.082031 44.957031 -83.625 47.59375 -83.625 C 51.132812 -83.625 54.050781 -82.960938 56.34375 -81.640625 C 58.632812 -80.328125 60.4375 -78.628906 61.75 -76.546875 C 63.070312 -74.460938 63.992188 -72.132812 64.515625 -69.5625 C 65.035156 -67 65.296875 -64.5 65.296875 -62.0625 L 65.296875 -17.90625 C 65.296875 -17.425781 65.328125 -16.644531 65.390625 -15.5625 C 65.460938 -14.488281 65.671875 -13.394531 66.015625 -12.28125 C 66.367188 -11.175781 66.910156 -10.207031 67.640625 -9.375 C 68.367188 -8.539062 69.425781 -8.125 70.8125 -8.125 C 72.96875 -8.125 74.828125 -8.882812 76.390625 -10.40625 C 77.953125 -11.9375 79.304688 -13.847656 80.453125 -16.140625 C 81.597656 -18.429688 82.535156 -20.910156 83.265625 -23.578125 C 83.992188 -26.253906 84.597656 -28.773438 85.078125 -31.140625 C 85.492188 -33.359375 86.1875 -34.96875 87.15625 -35.96875 C 88.132812 -36.976562 89.144531 -37.484375 90.1875 -37.484375 C 91.019531 -37.484375 91.882812 -37.222656 92.78125 -36.703125 C 93.6875 -36.179688 94.503906 -35.503906 95.234375 -34.671875 C 95.960938 -33.835938 96.550781 -32.898438 97 -31.859375 C 97.457031 -30.828125 97.6875 -29.789062 97.6875 -28.75 C 97.6875 -28.601562 97.6875 -28.425781 97.6875 -28.21875 C 97.6875 -28.007812 97.613281 -27.695312 97.46875 -27.28125 C 96.570312 -23.738281 95.34375 -20.023438 93.78125 -16.140625 C 92.21875 -12.253906 90.203125 -8.675781 87.734375 -5.40625 C 85.273438 -2.144531 82.34375 0.554688 78.9375 2.703125 C 75.539062 4.859375 71.550781 5.9375 66.96875 5.9375 C 64.113281 5.9375 61.59375 5.394531 59.40625 4.3125 C 57.21875 3.238281 55.34375 1.800781 53.78125 0 C 52.226562 -1.800781 51.050781 -3.914062 50.25 -6.34375 C 49.445312 -8.78125 49.046875 -11.351562 49.046875 -14.0625 L 49.046875 -57.375 C 49.046875 -59.039062 49.007812 -60.601562 48.9375 -62.0625 C 48.875 -63.519531 48.6875 -64.804688 48.375 -65.921875 C 48.0625 -67.035156 47.609375 -67.921875 47.015625 -68.578125 C 46.429688 -69.234375 45.617188 -69.5625 44.578125 -69.5625 C 43.046875 -69.5625 41.164062 -68.519531 38.9375 -66.4375 C 36.71875 -64.351562 34.53125 -61.644531 32.375 -58.3125 C 30.226562 -54.988281 28.335938 -51.222656 26.703125 -47.015625 C 25.078125 -42.816406 24.054688 -38.597656 23.640625 -34.359375 L 23.640625 -3.234375 C 23.640625 -2.191406 23.617188 -1.128906 23.578125 -0.046875 C 23.546875 1.023438 23.335938 1.992188 22.953125 2.859375 C 22.578125 3.734375 21.988281 4.460938 21.1875 5.046875 C 20.394531 5.640625 19.234375 5.9375 17.703125 5.9375 C 16.660156 5.9375 15.53125 5.8125 14.3125 5.5625 C 13.101562 5.320312 11.992188 4.875 10.984375 4.21875 C 9.984375 3.5625 9.148438 2.625 8.484375 1.40625 C 7.828125 0.1875 7.5 -1.425781 7.5 -3.4375 Z M 7.5 -71.03125 "/></g></g></g><g fill="#004aad" fill-opacity="1"><g transform="translate(902.32171, 1052.04152)"><g><path d="M 31.34375 5.9375 C 27.175781 5.9375 23.390625 5.207031 19.984375 3.75 C 16.585938 2.289062 13.691406 0.125 11.296875 -2.75 C 8.898438 -5.632812 7.0625 -9.210938 5.78125 -13.484375 C 4.5 -17.753906 3.859375 -22.703125 3.859375 -28.328125 C 3.859375 -36.515625 5 -43.816406 7.28125 -50.234375 C 9.570312 -56.660156 12.695312 -62.179688 16.65625 -66.796875 C 20.613281 -71.421875 25.195312 -75.101562 30.40625 -77.84375 C 35.613281 -80.582031 41.132812 -82.367188 46.96875 -83.203125 L 46.96875 -131.421875 C 46.96875 -132.953125 46.84375 -134.164062 46.59375 -135.0625 C 46.351562 -135.96875 46.113281 -136.679688 45.875 -137.203125 C 45.632812 -137.722656 45.390625 -138.140625 45.140625 -138.453125 C 44.898438 -138.765625 44.78125 -139.09375 44.78125 -139.4375 C 44.78125 -139.851562 44.988281 -140.203125 45.40625 -140.484375 C 45.820312 -140.765625 46.375 -141.007812 47.0625 -141.21875 C 47.757812 -141.425781 48.507812 -141.582031 49.3125 -141.6875 C 50.113281 -141.789062 50.894531 -141.84375 51.65625 -141.84375 C 55.195312 -141.84375 57.988281 -140.921875 60.03125 -139.078125 C 62.082031 -137.242188 63.109375 -135.039062 63.109375 -132.46875 L 63.109375 -17.90625 C 63.109375 -16.726562 63.242188 -15.566406 63.515625 -14.421875 C 63.796875 -13.273438 64.234375 -12.234375 64.828125 -11.296875 C 65.421875 -10.359375 66.1875 -9.59375 67.125 -9 C 68.0625 -8.414062 69.15625 -8.125 70.40625 -8.125 C 72.550781 -8.125 74.40625 -8.882812 75.96875 -10.40625 C 77.53125 -11.9375 78.882812 -13.847656 80.03125 -16.140625 C 81.175781 -18.429688 82.113281 -20.910156 82.84375 -23.578125 C 83.570312 -26.253906 84.179688 -28.773438 84.671875 -31.140625 C 85.085938 -33.359375 85.78125 -34.96875 86.75 -35.96875 C 87.71875 -36.976562 88.722656 -37.484375 89.765625 -37.484375 C 90.597656 -37.484375 91.46875 -37.222656 92.375 -36.703125 C 93.28125 -36.179688 94.097656 -35.503906 94.828125 -34.671875 C 95.554688 -33.835938 96.144531 -32.898438 96.59375 -31.859375 C 97.039062 -30.828125 97.265625 -29.789062 97.265625 -28.75 C 97.265625 -28.601562 97.265625 -28.425781 97.265625 -28.21875 C 97.265625 -28.007812 97.195312 -27.695312 97.0625 -27.28125 C 96.15625 -23.738281 94.921875 -20.023438 93.359375 -16.140625 C 91.796875 -12.253906 89.78125 -8.675781 87.3125 -5.40625 C 84.851562 -2.144531 81.921875 0.554688 78.515625 2.703125 C 75.117188 4.859375 71.128906 5.9375 66.546875 5.9375 C 62.867188 5.9375 59.640625 5.171875 56.859375 3.640625 C 54.085938 2.117188 51.898438 0.109375 50.296875 -2.390625 C 47.941406 0.0351562 45.21875 2.03125 42.125 3.59375 C 39.03125 5.15625 35.4375 5.9375 31.34375 5.9375 Z M 34.578125 -8.125 C 37.347656 -8.125 39.757812 -8.921875 41.8125 -10.515625 C 43.863281 -12.109375 45.582031 -14.085938 46.96875 -16.453125 L 46.96875 -69.15625 C 43.5 -68.53125 40.148438 -67.363281 36.921875 -65.65625 C 33.691406 -63.957031 30.84375 -61.578125 28.375 -58.515625 C 25.914062 -55.460938 23.957031 -51.59375 22.5 -46.90625 C 21.039062 -42.226562 20.3125 -36.554688 20.3125 -29.890625 C 20.3125 -26.003906 20.707031 -22.6875 21.5 -19.9375 C 22.300781 -17.195312 23.34375 -14.957031 24.625 -13.21875 C 25.914062 -11.488281 27.425781 -10.207031 29.15625 -9.375 C 30.894531 -8.539062 32.703125 -8.125 34.578125 -8.125 Z M 34.578125 -8.125 "/></g></g></g><g fill="#004aad" fill-opacity="1"><g transform="translate(980.416823, 1052.04152)"><g><path d="M 23.640625 -17.90625 C 23.640625 -17.425781 23.671875 -16.644531 23.734375 -15.5625 C 23.804688 -14.488281 24.015625 -13.394531 24.359375 -12.28125 C 24.710938 -11.175781 25.269531 -10.207031 26.03125 -9.375 C 26.800781 -8.539062 27.878906 -8.125 29.265625 -8.125 C 31.347656 -8.125 33.171875 -8.882812 34.734375 -10.40625 C 36.296875 -11.9375 37.648438 -13.847656 38.796875 -16.140625 C 39.941406 -18.429688 40.894531 -20.910156 41.65625 -23.578125 C 42.414062 -26.253906 43.039062 -28.773438 43.53125 -31.140625 C 43.945312 -33.285156 44.585938 -34.84375 45.453125 -35.8125 C 46.328125 -36.789062 47.265625 -37.332031 48.265625 -37.4375 C 49.273438 -37.539062 50.28125 -37.28125 51.28125 -36.65625 C 52.289062 -36.03125 53.191406 -35.210938 53.984375 -34.203125 C 54.785156 -33.203125 55.378906 -32.078125 55.765625 -30.828125 C 56.148438 -29.578125 56.203125 -28.394531 55.921875 -27.28125 C 54.953125 -23.738281 53.6875 -20.023438 52.125 -16.140625 C 50.5625 -12.253906 48.5625 -8.675781 46.125 -5.40625 C 43.695312 -2.144531 40.78125 0.554688 37.375 2.703125 C 33.976562 4.859375 29.988281 5.9375 25.40625 5.9375 C 22.5625 5.9375 20.023438 5.394531 17.796875 4.3125 C 15.578125 3.238281 13.703125 1.800781 12.171875 0 C 10.648438 -1.800781 9.488281 -3.914062 8.6875 -6.34375 C 7.894531 -8.78125 7.5 -11.351562 7.5 -14.0625 L 7.5 -71.03125 C 7.5 -73.039062 7.34375 -74.492188 7.03125 -75.390625 C 6.71875 -76.296875 6.5625 -77.128906 6.5625 -77.890625 C 6.5625 -78.929688 7.113281 -79.78125 8.21875 -80.4375 C 9.332031 -81.101562 10.65625 -81.4375 12.1875 -81.4375 C 15.726562 -81.4375 18.519531 -80.515625 20.5625 -78.671875 C 22.613281 -76.835938 23.640625 -74.632812 23.640625 -72.0625 Z M 15.9375 -97.15625 C 15.03125 -95.769531 13.914062 -94.78125 12.59375 -94.1875 C 11.28125 -93.601562 10.035156 -93.3125 8.859375 -93.3125 C 5.941406 -93.3125 3.820312 -93.832031 2.5 -94.875 C 1.1875 -95.914062 0.53125 -97.023438 0.53125 -98.203125 C 0.53125 -98.753906 0.71875 -99.289062 1.09375 -99.8125 C 1.476562 -100.332031 1.878906 -100.875 2.296875 -101.4375 L 21.671875 -123.828125 C 21.878906 -125.003906 22.726562 -125.972656 24.21875 -126.734375 C 25.707031 -127.503906 27.21875 -127.890625 28.75 -127.890625 C 29.789062 -127.890625 30.832031 -127.734375 31.875 -127.421875 C 32.914062 -127.109375 33.851562 -126.671875 34.6875 -126.109375 C 35.519531 -125.554688 36.195312 -124.914062 36.71875 -124.1875 C 37.238281 -123.457031 37.5 -122.640625 37.5 -121.734375 C 37.5 -120.765625 37.203125 -119.96875 36.609375 -119.34375 C 36.015625 -118.71875 35.441406 -118.09375 34.890625 -117.46875 Z M 15.9375 -97.15625 "/></g></g></g><g clip-path="url(#ae8349c34f)"><path fill="#004aad" d="M 960.746094 430.328125 C 960.746094 388.75 933.980469 353.546875 896.707031 340.800781 C 922.511719 311.171875 928.089844 267.207031 907.378906 231.203125 C 886.671875 195.203125 845.730469 177.996094 807.179688 185.644531 C 814.824219 147.09375 797.621094 106.152344 761.621094 85.445312 C 725.617188 64.734375 681.652344 70.152344 652.019531 96.117188 C 639.277344 58.839844 604.070312 32.078125 562.496094 32.078125 C 520.917969 32.078125 485.710938 58.839844 472.96875 96.117188 C 443.339844 70.3125 399.371094 64.734375 363.371094 85.445312 C 327.367188 106.152344 310.164062 147.09375 317.808594 185.644531 C 279.257812 177.996094 238.320312 195.203125 217.609375 231.203125 C 196.902344 267.207031 202.316406 311.171875 228.285156 340.800781 C 191.007812 353.546875 164.246094 388.75 164.246094 430.328125 C 164.246094 471.90625 191.007812 507.113281 228.285156 519.855469 C 202.476562 549.484375 196.902344 593.453125 217.609375 629.453125 C 238.320312 665.457031 279.257812 682.660156 317.808594 675.015625 C 310.164062 713.5625 327.367188 754.503906 363.371094 775.214844 C 399.371094 795.921875 443.339844 790.507812 472.96875 764.539062 C 485.710938 801.816406 520.917969 828.578125 562.496094 828.578125 C 604.070312 828.578125 639.277344 801.816406 652.019531 764.539062 C 681.652344 790.347656 725.617188 795.921875 761.621094 775.214844 C 797.621094 754.503906 814.824219 713.5625 807.179688 675.015625 C 845.730469 682.660156 886.671875 665.457031 907.378906 629.453125 C 928.089844 593.453125 922.671875 549.484375 896.707031 519.855469 C 933.980469 507.113281 960.746094 471.90625 960.746094 430.328125 Z M 960.746094 430.328125 " fill-opacity="1" fill-rule="nonzero"/></g><g fill="#ffffff" fill-opacity="1"><g transform="translate(435.950394, 574.547559)"><g><path d="M 245.34375 -8.796875 C 247.144531 -7.597656 247.519531 -5.796875 246.46875 -3.390625 C 245.414062 -0.984375 243.457031 1.457031 240.59375 3.9375 C 237.738281 6.425781 234.351562 8.570312 230.4375 10.375 C 226.53125 12.1875 222.617188 13.015625 218.703125 12.859375 C 214.941406 12.710938 211.253906 11.582031 207.640625 9.46875 C 204.035156 7.363281 200.835938 4.09375 198.046875 -0.34375 C 195.265625 -4.78125 193.007812 -10.304688 191.28125 -16.921875 C 189.550781 -23.546875 188.6875 -31.445312 188.6875 -40.625 L 188.6875 -254.59375 C 188.6875 -263.320312 187.820312 -270.09375 186.09375 -274.90625 C 184.363281 -279.71875 182.332031 -283.210938 180 -285.390625 C 177.664062 -287.578125 175.253906 -288.859375 172.765625 -289.234375 C 170.285156 -289.609375 168.296875 -289.796875 166.796875 -289.796875 C 165.140625 -289.796875 163.03125 -289.566406 160.46875 -289.109375 C 157.914062 -288.660156 155.472656 -287.195312 153.140625 -284.71875 C 150.804688 -282.238281 148.8125 -278.328125 147.15625 -272.984375 C 145.5 -267.640625 144.671875 -260.003906 144.671875 -250.078125 L 144.671875 -0.453125 C 145.117188 -0.453125 145.609375 -0.191406 146.140625 0.328125 C 146.671875 0.859375 146.9375 1.351562 146.9375 1.8125 C 146.9375 3.007812 146.066406 4.25 144.328125 5.53125 C 142.597656 6.8125 140.453125 8.015625 137.890625 9.140625 C 135.335938 10.265625 132.441406 11.164062 129.203125 11.84375 C 125.972656 12.519531 122.929688 12.859375 120.078125 12.859375 C 117.066406 12.859375 114.394531 12.484375 112.0625 11.734375 C 109.726562 10.984375 108.5625 8.425781 108.5625 4.0625 L 108.5625 -254.59375 C 108.5625 -263.320312 107.769531 -270.09375 106.1875 -274.90625 C 104.613281 -279.71875 102.695312 -283.210938 100.4375 -285.390625 C 98.175781 -287.578125 95.804688 -288.859375 93.328125 -289.234375 C 90.847656 -289.609375 88.703125 -289.796875 86.890625 -289.796875 C 85.390625 -289.796875 83.394531 -289.609375 80.90625 -289.234375 C 78.425781 -288.859375 75.984375 -287.578125 73.578125 -285.390625 C 71.171875 -283.210938 69.101562 -279.71875 67.375 -274.90625 C 65.644531 -270.09375 64.78125 -263.320312 64.78125 -254.59375 L 64.78125 -49.875 C 64.78125 -29.414062 61.394531 -13.84375 54.625 -3.15625 C 47.851562 7.519531 37.992188 12.859375 25.046875 12.859375 C 20.679688 12.859375 17.109375 12.101562 14.328125 10.59375 C 11.546875 9.09375 9.328125 7.210938 7.671875 4.953125 C 6.015625 2.703125 4.847656 0.300781 4.171875 -2.25 C 3.492188 -4.8125 3.15625 -7.144531 3.15625 -9.25 C 3.15625 -10.300781 3.492188 -10.976562 4.171875 -11.28125 C 4.847656 -11.582031 5.785156 -11.734375 6.984375 -11.734375 C 8.191406 -11.734375 9.546875 -11.769531 11.046875 -11.84375 C 12.554688 -11.925781 14.140625 -12.265625 15.796875 -12.859375 C 17.304688 -13.460938 18.847656 -14.664062 20.421875 -16.46875 C 22.003906 -18.28125 23.394531 -20.914062 24.59375 -24.375 C 25.800781 -27.832031 26.78125 -32.191406 27.53125 -37.453125 C 28.28125 -42.722656 28.65625 -49.195312 28.65625 -56.875 L 28.65625 -250.078125 C 28.65625 -263.617188 30.347656 -275.050781 33.734375 -284.375 C 37.128906 -293.707031 41.535156 -301.304688 46.953125 -307.171875 C 52.367188 -313.046875 58.5 -317.257812 65.34375 -319.8125 C 72.1875 -322.375 79.066406 -323.65625 85.984375 -323.65625 C 87.941406 -323.65625 90.578125 -323.46875 93.890625 -323.09375 C 97.203125 -322.71875 100.847656 -321.851562 104.828125 -320.5 C 108.816406 -319.144531 112.84375 -317.222656 116.90625 -314.734375 C 120.96875 -312.253906 124.804688 -308.910156 128.421875 -304.703125 C 131.285156 -308.910156 134.445312 -312.253906 137.90625 -314.734375 C 141.363281 -317.222656 144.785156 -319.144531 148.171875 -320.5 C 151.554688 -321.851562 154.789062 -322.71875 157.875 -323.09375 C 160.957031 -323.46875 163.628906 -323.65625 165.890625 -323.65625 C 173.109375 -323.65625 180.21875 -322.375 187.21875 -319.8125 C 194.21875 -317.257812 200.460938 -313.046875 205.953125 -307.171875 C 211.441406 -301.304688 215.914062 -293.707031 219.375 -284.375 C 222.84375 -275.050781 224.578125 -263.617188 224.578125 -250.078125 L 224.578125 -44.46875 C 224.578125 -39.644531 225.140625 -35.316406 226.265625 -31.484375 C 227.390625 -27.648438 228.890625 -24.265625 230.765625 -21.328125 C 232.648438 -18.390625 234.875 -15.90625 237.4375 -13.875 C 240 -11.84375 242.632812 -10.148438 245.34375 -8.796875 Z M 245.34375 -8.796875 "/></g></g></g></svg>